{
    "asset" : {
        "generator" : "Khronos glTF Blender I/O v1.5.17",
        "version" : "2.0"
    },
    "extensionsUsed" : [
        "KHR_lights_punctual"
    ],
    "extensionsRequired" : [
        "KHR_lights_punctual"
    ],
    "extensions" : {
        "KHR_lights_punctual" : {
            "lights" : [
                {
                    "color" : [
                        1,
                        1,
                        1
                    ],
                    "intensity" : 10,
                    "type" : "point",
                    "name" : "Punto"
                },
                {
                    "color" : [
                        1,
                        1,
                        1
                    ],
                    "intensity" : 10,
                    "type" : "point",
                    "name" : "Punto.001"
                },
                {
                    "color" : [
                        1,
                        1,
                        1
                    ],
                    "intensity" : 10,
                    "type" : "point",
                    "name" : "Punto.002"
                },
                {
                    "color" : [
                        1,
                        1,
                        1
                    ],
                    "intensity" : 10,
                    "type" : "point",
                    "name" : "Punto.003"
                },
                {
                    "color" : [
                        1,
                        1,
                        1
                    ],
                    "intensity" : 10,
                    "type" : "point",
                    "name" : "Punto.004"
                },
                {
                    "color" : [
                        1,
                        1,
                        1
                    ],
                    "intensity" : 10,
                    "type" : "point",
                    "name" : "Punto.005"
                },
                {
                    "color" : [
                        1,
                        1,
                        1
                    ],
                    "intensity" : 10,
                    "type" : "point",
                    "name" : "Punto.006"
                },
                {
                    "color" : [
                        1,
                        1,
                        1
                    ],
                    "intensity" : 10,
                    "type" : "point",
                    "name" : "Punto.007"
                },
                {
                    "color" : [
                        1,
                        1,
                        1
                    ],
                    "intensity" : 10,
                    "type" : "point",
                    "name" : "Punto.008"
                },
                {
                    "color" : [
                        1,
                        1,
                        1
                    ],
                    "intensity" : 10,
                    "type" : "point",
                    "name" : "Punto.009"
                },
                {
                    "color" : [
                        1,
                        1,
                        1
                    ],
                    "intensity" : 10,
                    "type" : "point",
                    "name" : "Punto.010"
                },
                {
                    "color" : [
                        1,
                        1,
                        1
                    ],
                    "intensity" : 10,
                    "type" : "point",
                    "name" : "Punto.011"
                }
            ]
        }
    },
    "scene" : 0,
    "scenes" : [
        {
            "name" : "Scene",
            "nodes" : [
                0,
                1,
                3,
                5,
                7,
                9,
                11,
                13,
                15,
                17,
                19,
                21,
                23,
                25
            ]
        }
    ],
    "nodes" : [
        {
            "mesh" : 0,
            "name" : "Plano.001",
            "scale" : [
                9.986215591430664,
                9.986215591430664,
                9.986215591430664
            ],
            "translation" : [
                0,
                2.338430166244507,
                29.126232147216797
            ]
        },
        {
            "mesh" : 1,
            "name" : "L\u00ednea_9",
            "scale" : [
                5.9225664138793945,
                3.9048707485198975,
                6.774792194366455
            ],
            "translation" : [
                -0.48539766669273376,
                0.030997738242149353,
                -1.6638275384902954
            ]
        },
        {
            "extensions" : {
                "KHR_lights_punctual" : {
                    "light" : 0
                }
            },
            "name" : "Punto_Orientation",
            "rotation" : [
                -0.7071067690849304,
                0,
                0,
                0.7071067690849304
            ]
        },
        {
            "children" : [
                2
            ],
            "name" : "Punto"
        },
        {
            "extensions" : {
                "KHR_lights_punctual" : {
                    "light" : 1
                }
            },
            "name" : "Punto.001_Orientation",
            "rotation" : [
                -0.7071067690849304,
                0,
                0,
                0.7071067690849304
            ]
        },
        {
            "children" : [
                4
            ],
            "name" : "Punto.001",
            "translation" : [
                11.774171829223633,
                1.8839367628097534,
                -11.503634452819824
            ]
        },
        {
            "extensions" : {
                "KHR_lights_punctual" : {
                    "light" : 2
                }
            },
            "name" : "Punto.002_Orientation",
            "rotation" : [
                -0.7071067690849304,
                0,
                0,
                0.7071067690849304
            ]
        },
        {
            "children" : [
                6
            ],
            "name" : "Punto.002",
            "translation" : [
                11.774171829223633,
                1.8839367628097534,
                14.368134498596191
            ]
        },
        {
            "extensions" : {
                "KHR_lights_punctual" : {
                    "light" : 3
                }
            },
            "name" : "Punto.003_Orientation",
            "rotation" : [
                -0.7071067690849304,
                0,
                0,
                0.7071067690849304
            ]
        },
        {
            "children" : [
                8
            ],
            "name" : "Punto.003",
            "translation" : [
                -0.18803071975708008,
                1.540907859802246,
                -16.57499885559082
            ]
        },
        {
            "extensions" : {
                "KHR_lights_punctual" : {
                    "light" : 4
                }
            },
            "name" : "Punto.004_Orientation",
            "rotation" : [
                -0.7071067690849304,
                0,
                0,
                0.7071067690849304
            ]
        },
        {
            "children" : [
                10
            ],
            "name" : "Punto.004",
            "translation" : [
                -11.170553207397461,
                1.6065685749053955,
                -17.08905029296875
            ]
        },
        {
            "extensions" : {
                "KHR_lights_punctual" : {
                    "light" : 5
                }
            },
            "name" : "Punto.005_Orientation",
            "rotation" : [
                -0.7071067690849304,
                0,
                0,
                0.7071067690849304
            ]
        },
        {
            "children" : [
                12
            ],
            "name" : "Punto.005",
            "translation" : [
                -11.170553207397461,
                1.6065685749053955,
                -17.08905029296875
            ]
        },
        {
            "extensions" : {
                "KHR_lights_punctual" : {
                    "light" : 6
                }
            },
            "name" : "Punto.006_Orientation",
            "rotation" : [
                -0.7071067690849304,
                0,
                0,
                0.7071067690849304
            ]
        },
        {
            "children" : [
                14
            ],
            "name" : "Punto.006",
            "translation" : [
                -11.170553207397461,
                1.6065685749053955,
                -5.439981460571289
            ]
        },
        {
            "extensions" : {
                "KHR_lights_punctual" : {
                    "light" : 7
                }
            },
            "name" : "Punto.007_Orientation",
            "rotation" : [
                -0.7071067690849304,
                0,
                0,
                0.7071067690849304
            ]
        },
        {
            "children" : [
                16
            ],
            "name" : "Punto.007",
            "translation" : [
                -11.170553207397461,
                1.6065685749053955,
                5.125452995300293
            ]
        },
        {
            "extensions" : {
                "KHR_lights_punctual" : {
                    "light" : 8
                }
            },
            "name" : "Punto.008_Orientation",
            "rotation" : [
                -0.7071067690849304,
                0,
                0,
                0.7071067690849304
            ]
        },
        {
            "children" : [
                18
            ],
            "name" : "Punto.008",
            "translation" : [
                -11.170553207397461,
                1.6065685749053955,
                -5.439981460571289
            ]
        },
        {
            "extensions" : {
                "KHR_lights_punctual" : {
                    "light" : 9
                }
            },
            "name" : "Punto.009_Orientation",
            "rotation" : [
                -0.7071067690849304,
                0,
                0,
                0.7071067690849304
            ]
        },
        {
            "children" : [
                20
            ],
            "name" : "Punto.009",
            "translation" : [
                -11.170553207397461,
                1.6065685749053955,
                -5.439981460571289
            ]
        },
        {
            "extensions" : {
                "KHR_lights_punctual" : {
                    "light" : 10
                }
            },
            "name" : "Punto.010_Orientation",
            "rotation" : [
                -0.7071067690849304,
                0,
                0,
                0.7071067690849304
            ]
        },
        {
            "children" : [
                22
            ],
            "name" : "Punto.010",
            "translation" : [
                -11.170553207397461,
                1.6065685749053955,
                15.013616561889648
            ]
        },
        {
            "extensions" : {
                "KHR_lights_punctual" : {
                    "light" : 11
                }
            },
            "name" : "Punto.011_Orientation",
            "rotation" : [
                -0.7071067690849304,
                0,
                0,
                0.7071067690849304
            ]
        },
        {
            "children" : [
                24
            ],
            "name" : "Punto.011",
            "translation" : [
                0.5589151382446289,
                1.6065685749053955,
                15.013616561889648
            ]
        }
    ],
    "materials" : [
        {
            "doubleSided" : true,
            "name" : "Material.001",
            "pbrMetallicRoughness" : {
                "metallicFactor" : 0,
                "roughnessFactor" : 0.5
            }
        }
    ],
    "meshes" : [
        {
            "name" : "Plano.001",
            "primitives" : [
                {
                    "attributes" : {
                        "POSITION" : 0,
                        "NORMAL" : 1,
                        "TEXCOORD_0" : 2
                    },
                    "indices" : 3
                }
            ]
        },
        {
            "name" : "L\u00ednea_9",
            "primitives" : [
                {
                    "attributes" : {
                        "POSITION" : 4,
                        "NORMAL" : 5
                    },
                    "indices" : 6,
                    "material" : 0
                }
            ]
        }
    ],
    "accessors" : [
        {
            "bufferView" : 0,
            "componentType" : 5126,
            "count" : 96,
            "max" : [
                1.9311755895614624,
                0.03296835720539093,
                -0.8548968434333801
            ],
            "min" : [
                -1.894416093826294,
                0,
                -5.106215476989746
            ],
            "type" : "VEC3"
        },
        {
            "bufferView" : 1,
            "componentType" : 5126,
            "count" : 96,
            "type" : "VEC3"
        },
        {
            "bufferView" : 2,
            "componentType" : 5126,
            "count" : 96,
            "type" : "VEC2"
        },
        {
            "bufferView" : 3,
            "componentType" : 5123,
            "count" : 144,
            "type" : "SCALAR"
        },
        {
            "bufferView" : 4,
            "componentType" : 5126,
            "count" : 437,
            "max" : [
                3.3545103073120117,
                0.6104950308799744,
                3.274075984954834
            ],
            "min" : [
                -3.1273858547210693,
                -0.005039334297180176,
                -3.002434253692627
            ],
            "type" : "VEC3"
        },
        {
            "bufferView" : 5,
            "componentType" : 5126,
            "count" : 437,
            "type" : "VEC3"
        },
        {
            "bufferView" : 6,
            "componentType" : 5123,
            "count" : 1164,
            "type" : "SCALAR"
        }
    ],
    "bufferViews" : [
        {
            "buffer" : 0,
            "byteLength" : 1152,
            "byteOffset" : 0
        },
        {
            "buffer" : 0,
            "byteLength" : 1152,
            "byteOffset" : 1152
        },
        {
            "buffer" : 0,
            "byteLength" : 768,
            "byteOffset" : 2304
        },
        {
            "buffer" : 0,
            "byteLength" : 288,
            "byteOffset" : 3072
        },
        {
            "buffer" : 0,
            "byteLength" : 5244,
            "byteOffset" : 3360
        },
        {
            "buffer" : 0,
            "byteLength" : 5244,
            "byteOffset" : 8604
        },
        {
            "buffer" : 0,
            "byteLength" : 2328,
            "byteOffset" : 13848
        }
    ],
    "buffers" : [
        {
            "byteLength" : 16176,
            "uri" : "data:application/octet-stream;base64,"
        }
    ]
}
