{
    "asset" : {
        "generator" : "Khronos glTF Blender I/O v1.5.17",
        "version" : "2.0"
    },
    "scene" : 0,
    "scenes" : [
        {
            "name" : "Scene",
            "nodes" : [
                0,
                1,
                2,
                3,
                4
            ]
        }
    ],
    "nodes" : [
        {
            "mesh" : 0,
            "name" : "Plano",
            "scale" : [
                9.986215591430664,
                9.986215591430664,
                9.986215591430664
            ],
            "translation" : [
                0,
                2.4473023414611816,
                -0.4572625756263733
            ]
        },
        {
            "mesh" : 1,
            "name" : "Plano.001",
            "scale" : [
                9.986215591430664,
                9.986215591430664,
                9.986215591430664
            ],
            "translation" : [
                0,
                2.4473023414611816,
                29.126232147216797
            ]
        },
        {
            "mesh" : 2,
            "name" : "Plano.002",
            "scale" : [
                9.986215591430664,
                9.986215591430664,
                9.986215591430664
            ],
            "translation" : [
                0,
                2.4473023414611816,
                7.216673374176025
            ]
        },
        {
            "mesh" : 3,
            "name" : "Plano.003",
            "scale" : [
                9.575231552124023,
                9.986214637756348,
                19.60657501220703
            ],
            "translation" : [
                -25.92146873474121,
                2.4473023414611816,
                27.934762954711914
            ]
        },
        {
            "mesh" : 4,
            "name" : "L\u00ednea_9",
            "scale" : [
                5.9225664138793945,
                3.9048707485198975,
                6.774792194366455
            ],
            "translation" : [
                -0.48539766669273376,
                0.030997738242149353,
                -1.6638275384902954
            ]
        }
    ],
    "materials" : [
        {
            "doubleSided" : true,
            "name" : "Material.001",
            "pbrMetallicRoughness" : {
                "metallicFactor" : 0,
                "roughnessFactor" : 0.5
            }
        }
    ],
    "meshes" : [
        {
            "name" : "Plano",
            "primitives" : [
                {
                    "attributes" : {
                        "POSITION" : 0,
                        "NORMAL" : 1,
                        "TEXCOORD_0" : 2
                    },
                    "indices" : 3
                }
            ]
        },
        {
            "name" : "Plano.001",
            "primitives" : [
                {
                    "attributes" : {
                        "POSITION" : 4,
                        "NORMAL" : 5,
                        "TEXCOORD_0" : 6
                    },
                    "indices" : 3
                }
            ]
        },
        {
            "name" : "Plano.002",
            "primitives" : [
                {
                    "attributes" : {
                        "POSITION" : 7,
                        "NORMAL" : 8,
                        "TEXCOORD_0" : 9
                    },
                    "indices" : 3
                }
            ]
        },
        {
            "name" : "Plano.003",
            "primitives" : [
                {
                    "attributes" : {
                        "POSITION" : 10,
                        "NORMAL" : 11,
                        "TEXCOORD_0" : 12
                    },
                    "indices" : 3
                }
            ]
        },
        {
            "name" : "L\u00ednea_9",
            "primitives" : [
                {
                    "attributes" : {
                        "POSITION" : 13,
                        "NORMAL" : 14
                    },
                    "indices" : 15,
                    "material" : 0
                }
            ]
        }
    ],
    "accessors" : [
        {
            "bufferView" : 0,
            "componentType" : 5126,
            "count" : 4,
            "max" : [
                1.9311755895614624,
                0,
                -0.8211480975151062
            ],
            "min" : [
                -1.894416093826294,
                0,
                -2.143782138824463
            ],
            "type" : "VEC3"
        },
        {
            "bufferView" : 1,
            "componentType" : 5126,
            "count" : 4,
            "type" : "VEC3"
        },
        {
            "bufferView" : 2,
            "componentType" : 5126,
            "count" : 4,
            "type" : "VEC2"
        },
        {
            "bufferView" : 3,
            "componentType" : 5123,
            "count" : 6,
            "type" : "SCALAR"
        },
        {
            "bufferView" : 4,
            "componentType" : 5126,
            "count" : 4,
            "max" : [
                1.9200648069381714,
                0,
                -0.8548968434333801
            ],
            "min" : [
                -1.892935872077942,
                0,
                -2.1685664653778076
            ],
            "type" : "VEC3"
        },
        {
            "bufferView" : 5,
            "componentType" : 5126,
            "count" : 4,
            "type" : "VEC3"
        },
        {
            "bufferView" : 6,
            "componentType" : 5126,
            "count" : 4,
            "type" : "VEC2"
        },
        {
            "bufferView" : 7,
            "componentType" : 5126,
            "count" : 4,
            "max" : [
                1.9237091541290283,
                0,
                -0.8775773048400879
            ],
            "min" : [
                0.5839307308197021,
                0,
                -2.238225221633911
            ],
            "type" : "VEC3"
        },
        {
            "bufferView" : 8,
            "componentType" : 5126,
            "count" : 4,
            "type" : "VEC3"
        },
        {
            "bufferView" : 9,
            "componentType" : 5126,
            "count" : 4,
            "type" : "VEC2"
        },
        {
            "bufferView" : 10,
            "componentType" : 5126,
            "count" : 4,
            "max" : [
                2.021728277206421,
                0,
                -0.8809454441070557
            ],
            "min" : [
                0.7388477325439453,
                0,
                -2.238225221633911
            ],
            "type" : "VEC3"
        },
        {
            "bufferView" : 11,
            "componentType" : 5126,
            "count" : 4,
            "type" : "VEC3"
        },
        {
            "bufferView" : 12,
            "componentType" : 5126,
            "count" : 4,
            "type" : "VEC2"
        },
        {
            "bufferView" : 13,
            "componentType" : 5126,
            "count" : 407,
            "max" : [
                3.3545103073120117,
                0.6104950308799744,
                3.274075984954834
            ],
            "min" : [
                -3.1273858547210693,
                -0.005039334297180176,
                -3.002434253692627
            ],
            "type" : "VEC3"
        },
        {
            "bufferView" : 14,
            "componentType" : 5126,
            "count" : 407,
            "type" : "VEC3"
        },
        {
            "bufferView" : 15,
            "componentType" : 5123,
            "count" : 1164,
            "type" : "SCALAR"
        }
    ],
    "bufferViews" : [
        {
            "buffer" : 0,
            "byteLength" : 48,
            "byteOffset" : 0
        },
        {
            "buffer" : 0,
            "byteLength" : 48,
            "byteOffset" : 48
        },
        {
            "buffer" : 0,
            "byteLength" : 32,
            "byteOffset" : 96
        },
        {
            "buffer" : 0,
            "byteLength" : 12,
            "byteOffset" : 128
        },
        {
            "buffer" : 0,
            "byteLength" : 48,
            "byteOffset" : 140
        },
        {
            "buffer" : 0,
            "byteLength" : 48,
            "byteOffset" : 188
        },
        {
            "buffer" : 0,
            "byteLength" : 32,
            "byteOffset" : 236
        },
        {
            "buffer" : 0,
            "byteLength" : 48,
            "byteOffset" : 268
        },
        {
            "buffer" : 0,
            "byteLength" : 48,
            "byteOffset" : 316
        },
        {
            "buffer" : 0,
            "byteLength" : 32,
            "byteOffset" : 364
        },
        {
            "buffer" : 0,
            "byteLength" : 48,
            "byteOffset" : 396
        },
        {
            "buffer" : 0,
            "byteLength" : 48,
            "byteOffset" : 444
        },
        {
            "buffer" : 0,
            "byteLength" : 32,
            "byteOffset" : 492
        },
        {
            "buffer" : 0,
            "byteLength" : 4884,
            "byteOffset" : 524
        },
        {
            "buffer" : 0,
            "byteLength" : 4884,
            "byteOffset" : 5408
        },
        {
            "buffer" : 0,
            "byteLength" : 2328,
            "byteOffset" : 10292
        }
    ],
    "buffers" : [
        {
            "byteLength" : 12620,
            "uri" : "data:application/octet-stream;base64,"
        }
    ]
}
