{
    "asset" : {
        "generator" : "Khronos glTF Blender I/O v1.5.17",
        "version" : "2.0"
    },
    "scene" : 0,
    "scenes" : [
        {
            "name" : "Scene",
            "nodes" : [
                0,
                1,
                2
            ]
        }
    ],
    "nodes" : [
        {
            "mesh" : 0,
            "name" : "Plano.001",
            "scale" : [
                9.986215591430664,
                9.986215591430664,
                9.986215591430664
            ],
            "translation" : [
                0,
                2.338430166244507,
                29.126232147216797
            ]
        },
        {
            "mesh" : 1,
            "name" : "L\u00ednea_9",
            "scale" : [
                5.9225664138793945,
                3.9048707485198975,
                6.774792194366455
            ],
            "translation" : [
                -0.48539766669273376,
                0.030997738242149353,
                -1.6638275384902954
            ]
        },
        {
            "name" : "luz",
            "translation" : [
                0.16630932688713074,
                2.4225854873657227,
                -0.33666205406188965
            ]
        }
    ],
    "materials" : [
        {
            "doubleSided" : true,
            "emissiveFactor" : [
                0.4769911766052246,
                0.4769911766052246,
                0.4769911766052246
            ],
            "name" : "Material.002",
            "pbrMetallicRoughness" : {
                "baseColorFactor" : [
                    0.800000011920929,
                    0.800000011920929,
                    0.800000011920929,
                    1
                ],
                "metallicFactor" : 0,
                "roughnessFactor" : 0.5
            }
        },
        {
            "doubleSided" : true,
            "emissiveFactor" : [
                1,
                1,
                1
            ],
            "name" : "Material.001",
            "pbrMetallicRoughness" : {
                "metallicFactor" : 0,
                "roughnessFactor" : 0.5
            }
        }
    ],
    "meshes" : [
        {
            "name" : "Plano.001",
            "primitives" : [
                {
                    "attributes" : {
                        "POSITION" : 0,
                        "NORMAL" : 1,
                        "TEXCOORD_0" : 2
                    },
                    "indices" : 3,
                    "material" : 0
                }
            ]
        },
        {
            "name" : "L\u00ednea_9",
            "primitives" : [
                {
                    "attributes" : {
                        "POSITION" : 4,
                        "NORMAL" : 5
                    },
                    "indices" : 6,
                    "material" : 1
                }
            ]
        }
    ],
    "accessors" : [
        {
            "bufferView" : 0,
            "componentType" : 5126,
            "count" : 96,
            "max" : [
                1.9311755895614624,
                0.03296835720539093,
                -0.8548968434333801
            ],
            "min" : [
                -1.894416093826294,
                0,
                -5.106215476989746
            ],
            "type" : "VEC3"
        },
        {
            "bufferView" : 1,
            "componentType" : 5126,
            "count" : 96,
            "type" : "VEC3"
        },
        {
            "bufferView" : 2,
            "componentType" : 5126,
            "count" : 96,
            "type" : "VEC2"
        },
        {
            "bufferView" : 3,
            "componentType" : 5123,
            "count" : 144,
            "type" : "SCALAR"
        },
        {
            "bufferView" : 4,
            "componentType" : 5126,
            "count" : 437,
            "max" : [
                3.3545103073120117,
                0.6104950308799744,
                3.274075984954834
            ],
            "min" : [
                -3.1273858547210693,
                -0.005039334297180176,
                -3.002434253692627
            ],
            "type" : "VEC3"
        },
        {
            "bufferView" : 5,
            "componentType" : 5126,
            "count" : 437,
            "type" : "VEC3"
        },
        {
            "bufferView" : 6,
            "componentType" : 5123,
            "count" : 1164,
            "type" : "SCALAR"
        }
    ],
    "bufferViews" : [
        {
            "buffer" : 0,
            "byteLength" : 1152,
            "byteOffset" : 0
        },
        {
            "buffer" : 0,
            "byteLength" : 1152,
            "byteOffset" : 1152
        },
        {
            "buffer" : 0,
            "byteLength" : 768,
            "byteOffset" : 2304
        },
        {
            "buffer" : 0,
            "byteLength" : 288,
            "byteOffset" : 3072
        },
        {
            "buffer" : 0,
            "byteLength" : 5244,
            "byteOffset" : 3360
        },
        {
            "buffer" : 0,
            "byteLength" : 5244,
            "byteOffset" : 8604
        },
        {
            "buffer" : 0,
            "byteLength" : 2328,
            "byteOffset" : 13848
        }
    ],
    "buffers" : [
        {
            "byteLength" : 16176,
            "uri" : "data:application/octet-stream;base64,"
        }
    ]
}
