{
    "asset" : {
        "generator" : "Khronos glTF Blender I/O v1.4.40",
        "version" : "2.0"
    },
    "extensionsUsed" : [
        "KHR_materials_transmission"
    ],
    "scene" : 0,
    "scenes" : [
        {
            "name" : "Scene",
            "nodes" : [
                0,
                1,
                2
            ]
        }
    ],
    "nodes" : [
        {
            "name" : "Light",
            "rotation" : [
                0.16907575726509094,
                0.7558803558349609,
                -0.27217137813568115,
                0.570947527885437
            ],
            "translation" : [
                4.076245307922363,
                5.903861999511719,
                -1.0054539442062378
            ]
        },
        {
            "mesh" : 0,
            "name" : "PLANTAS",
            "scale" : [
                0.03896597400307655,
                0.03896597400307655,
                0.03896597400307655
            ],
            "translation" : [
                -0.01780223846435547,
                0.13948535919189453,
                -0.4710812568664551
            ]
        },
        {
            "mesh" : 1,
            "name" : "Plane",
            "scale" : [
                22.14143180847168,
                22.14143180847168,
                22.14143180847168
            ],
            "translation" : [
                0,
                0.1335548609495163,
                0
            ]
        }
    ],
    "materials" : [
        {
            "doubleSided" : true,
            "extensions" : {
                "KHR_materials_transmission" : {
                    "transmissionFactor" : 0.9007092118263245
                }
            },
            "name" : "\u041b\u0438\u0441\u0442\u0432\u0430 - \u041b\u0438\u0441\u0442\u044c\u044f \u0414\u0435\u0440\u0435\u0432\u0430 \u041c\u0435\u043b\u043a\u0438\u0435",
            "pbrMetallicRoughness" : {
                "baseColorTexture" : {
                    "index" : 0,
                    "texCoord" : 0
                },
                "roughnessFactor" : 0.9251668453216553
            }
        },
        {
            "doubleSided" : true,
            "name" : "Material.001",
            "pbrMetallicRoughness" : {
                "baseColorFactor" : [
                    0,
                    0,
                    0,
                    0
                ],
                "metallicFactor" : 0,
                "roughnessFactor" : 0.5
            }
        }
    ],
    "meshes" : [
        {
            "name" : "\u041b\u0438\u0441\u0442\u0432\u0430 - \u041b\u0438\u0441\u0442\u044c\u044f \u0414\u0435\u0440\u0435\u0432\u0430 \u041c\u0435\u043b\u043a\u0438\u0435",
            "primitives" : [
                {
                    "attributes" : {
                        "POSITION" : 0,
                        "NORMAL" : 1,
                        "TEXCOORD_0" : 2
                    },
                    "indices" : 3,
                    "material" : 0
                }
            ]
        },
        {
            "name" : "Plane",
            "primitives" : [
                {
                    "attributes" : {
                        "POSITION" : 4,
                        "NORMAL" : 5,
                        "TEXCOORD_0" : 6
                    },
                    "indices" : 7,
                    "material" : 1
                }
            ]
        }
    ],
    "textures" : [
        {
            "sampler" : 0,
            "source" : 0
        }
    ],
    "images" : [
        {
            "bufferView" : 4,
            "mimeType" : "image/png",
            "name" : "55c1a38a1a3bf284d71cd02834671936"
        }
    ],
    "accessors" : [
        {
            "bufferView" : 0,
            "componentType" : 5126,
            "count" : 876,
            "max" : [
                131.512939453125,
                9.754372596740723,
                160.7940673828125
            ],
            "min" : [
                -142.832763671875,
                -9.75444507598877,
                -276.61981201171875
            ],
            "type" : "VEC3"
        },
        {
            "bufferView" : 1,
            "componentType" : 5126,
            "count" : 876,
            "type" : "VEC3"
        },
        {
            "bufferView" : 2,
            "componentType" : 5126,
            "count" : 876,
            "type" : "VEC2"
        },
        {
            "bufferView" : 3,
            "componentType" : 5123,
            "count" : 1314,
            "type" : "SCALAR"
        },
        {
            "bufferView" : 5,
            "componentType" : 5126,
            "count" : 4,
            "max" : [
                1,
                0,
                1
            ],
            "min" : [
                -1,
                0,
                -1
            ],
            "type" : "VEC3"
        },
        {
            "bufferView" : 6,
            "componentType" : 5126,
            "count" : 4,
            "type" : "VEC3"
        },
        {
            "bufferView" : 7,
            "componentType" : 5126,
            "count" : 4,
            "type" : "VEC2"
        },
        {
            "bufferView" : 8,
            "componentType" : 5123,
            "count" : 6,
            "type" : "SCALAR"
        }
    ],
    "bufferViews" : [
        {
            "buffer" : 0,
            "byteLength" : 10512,
            "byteOffset" : 0
        },
        {
            "buffer" : 0,
            "byteLength" : 10512,
            "byteOffset" : 10512
        },
        {
            "buffer" : 0,
            "byteLength" : 7008,
            "byteOffset" : 21024
        },
        {
            "buffer" : 0,
            "byteLength" : 2628,
            "byteOffset" : 28032
        },
        {
            "buffer" : 0,
            "byteLength" : 364979,
            "byteOffset" : 30660
        },
        {
            "buffer" : 0,
            "byteLength" : 48,
            "byteOffset" : 395640
        },
        {
            "buffer" : 0,
            "byteLength" : 48,
            "byteOffset" : 395688
        },
        {
            "buffer" : 0,
            "byteLength" : 32,
            "byteOffset" : 395736
        },
        {
            "buffer" : 0,
            "byteLength" : 12,
            "byteOffset" : 395768
        }
    ],
    "samplers" : [
        {
            "magFilter" : 9729,
            "minFilter" : 9986
        }
    ],
    "buffers" : [
        {
            "byteLength" : 395780,
            "uri" : "data:application/octet-stream;base64,"
        }
    ]
}
